The Departed 2006 BluRay 1080p ac3-LoNeWoLf

Encoded by Tequila-Bob a.k.a. bobnjeff a.k.a.LoNeWoLf

Source - NTSC BluRay Disc.

Movie has been tested and is DXVA Compliant
 
http://www.imdb.com/title/tt0407887/

Genres:Crime , Drama , Mystery , Thriller

Rated R for strong brutal violence, pervasive language, some strong sexual content and drug material


The Departed (2006) 
  151 min  -  Crime | Drama | Mystery   -  6 October 2006 (USA) 
8.5/10 X  Users: 8.5/10 (276,299 votes) 1,853 reviews | Critics: 335 reviews 
Two men from opposite sides of the law are undercover within the Massachusetts State Police and the Irish mafia, but violence and bloodshed boil when discoveries are made, and the moles are dispatched to find out their enemy's identities. 


Director: Martin Scorsese
Writers: William Monahan (screenplay), Alan Mak (2002 screenplay Mou gaan dou), and 1 more credit » 
Stars:Leonardo DiCaprio, Matt Damon , Jack Nicholson 

Storyline
In South Boston, the state police force is waging war on Irish-American organized crime. Young undercover cop Billy Costigan is assigned to infiltrate the mob syndicate run by gangland chief Frank Costello. While Billy quickly gains Costello's confidence, Colin Sullivan, a hardened young criminal who has infiltrated the state police as an informer for the syndicate, is rising to a position of power in the Special Investigation Unit. Each man becomes deeply consumed by his double life, gathering information about the plans and counter-plans of the operations he has penetrated. But when it becomes clear to both the mob and the police that there's a mole in their midst, Billy and Colin are suddenly in danger of being caught and exposed to the enemy-and each must race to uncover the identity of the other man in time to save himself. But is either willing to turn on the friends and comrades they've made during their long stints undercover?



Cast
Cast overview, first billed only: 
  Leonardo DiCaprio  ...  Billy Costigan  
  Matt Damon  ...  Colin Sullivan  
  Jack Nicholson  ...  Frank Costello  
  Mark Wahlberg  ...  Staff Sgt. Dignam  
  Martin Sheen  ...  Cpt. Queenan  
  Ray Winstone  ...  Mr. French  
  Vera Farmiga  ...  Madolyn  
  Anthony Anderson  ...  Brown  
  Alec Baldwin  ...  Cpt. Ellerby  
  Kevin Corrigan  ...  Cousin Sean  
  James Badge Dale  ...  Barrigan  
  David O'Hara  ...  Fitzy (as David Patrick O'Hara)  
  Mark Rolston  ...  Timothy Delahunt  
  Robert Wahlberg  ...  FBI Agent Frank Lazio  
  Kristen Dalton  ...  G 


[img]http://torrent-stats.info/4504/4b012bdc.png[/img]



Format : Matroska 
File size : 10.1 GiB 
Duration : 2h 31mn 
Overall bit rate : 9 539 Kbps 
Encoded date : UTC 2010-12-18 20:38:30 
Writing application : mkvmerge v4.4.0 ('Die Wiederkehr') built on Oct 31 2010 21:52:48 
Writing library : libebml v1.0.0 + libmatroska v1.0.0 

Video 
ID : 1 
Format : AVC 
Format/Info : Advanced Video Codec 
Format profile : High@L4.1 
Format settings, CABAC : Yes 
Format settings, ReFrames : 3 frames 
Muxing mode : Container profile=Unknown@4.1 
Codec ID : V_MPEG4/ISO/AVC 
Duration : 2h 31mn 
Bit rate : 8 817 Kbps 
Width : 1 920 pixels 
Height : 800 pixels 
Display aspect ratio : 2.40:1 
Frame rate : 23.976 fps 
Color space : YUV 
Chroma subsampling : 4:2:0 
Bit depth : 8 bits 
Scan type : Progressive 
Bits/(Pixel*Frame) : 0.239 
Stream size : 9.20 GiB (91%) 
Writing library : x264 core 98 r1649 c54c47d 
Encoding settings : cabac=1 / ref=4 / deblock=1:-3:-1 / analyse=0x3:0x113 / me=umh / subme=9 / psy=1 / psy_rd=1.00:0.15 / mixed_ref=1 / me_range=32 / chroma_me=1 / trellis=2 / 8x8dct=1 / cqm=0 / deadzone=21,11 / fast_pskip=0 / chroma_qp_offset=-3 / threads=6 / sliced_threads=0 / nr=0 / decimate=1 / interlaced=0 / constrained_intra=0 / bframes=3 / b_pyramid=1 / b_adapt=2 / b_bias=0 / direct=1 / weightb=1 / weightp=2 / keyint=250 / keyint_min=25 / scenecut=40 / intra_refresh=0 / rc_lookahead=60 / rc=2pass / mbtree=1 / bitrate=8817 / ratetol=1.0 / qcomp=0.60 / qpmin=10 / qpmax=51 / qpstep=4 / cplxblur=20.0 / qblur=0.5 / vbv_maxrate=50000 / vbv_bufsize=50000 / ip_ratio=1.40 / aq=1:1.50 / nal_hrd=none 
Language : English 

Audio 
ID : 2 
Format : AC-3 
Format/Info : Audio Coding 3 
Mode extension : CM (complete main) 
Codec ID : A_AC3 
Duration : 2h 31mn 
Bit rate mode : Constant 
Bit rate : 640 Kbps 
Channel(s) : 6 channels 
Channel positions : Front: L C R, Side: L R, LFE 
Sampling rate : 48.0 KHz 
Bit depth : 16 bits 
Stream size : 693 MiB (7%) 
Title : 3/2+1 
Language : English 

Text #1 
ID : 3 
Format : PGS 
Codec ID : S_HDMV/PGS 
Codec ID/Info : The same subtitle format used on BDs/HD-DVDs 
Language : English 

Text #2 
ID : 4 
Format : PGS 
Codec ID : S_HDMV/PGS 
Codec ID/Info : The same subtitle format used on BDs/HD-DVDs 
Language : French 

Text #3 
ID : 5 
Format : PGS 
Codec ID : S_HDMV/PGS 
Codec ID/Info : The same subtitle format used on BDs/HD-DVDs 
Language : Spanish 

Text #4 
ID : 6 
Format : PGS 
Codec ID : S_HDMV/PGS 
Codec ID/Info : The same subtitle format used on BDs/HD-DVDs 
Language : English 

Menu & 36 Chapters




See the full size 1920x800 PNG files at the link below
 
http://s1015.photobucket.com/albums/af279/tequila-bob/The%20Departed%202006/